# xmcd
#
# Track frame offsets:
#	150
#	11030
#	22064
#	32545
#	43918
#	62267
#	76763
#	95478
#	108306
#	117332
#	127983
#	143084
#
# Disc length: 2150 seconds
#
# Revision: 1
# Processed by: cddbd v1.5.2PL0 Copyright (c) Steve Scherf et al.
# Submitted via: audiograbber 1.83.01
#
DISCID=9308640c
DTITLE=Dailey and Vincent - Brothers Of The Highway
DYEAR=2013
DGENRE=
TTITLE0=Steel Drivin' Man
TTITLE1=Close By
TTITLE2=When I Stop Dreaming
TTITLE3=Back To Jackson County
TTITLE4=Brothers Of The Highway
TTITLE5=Tomorrow I'll Be Gone
TTITLE6=Hills Of Caroline
TTITLE7=Big River
TTITLE8=Howdy Neigbor Howdy
TTITLE9=Won't It Be Wonderful There
TTITLE10=Back TO Hancock County
TTITLE11=Where've You Been
EXTD=
EXTT0=
EXTT1=
EXTT2=
EXTT3=
EXTT4=
EXTT5=
EXTT6=
EXTT7=
EXTT8=
EXTT9=
EXTT10=
EXTT11=
PLAYORDER=
